<?xml version="1.0" encoding="UTF-8" standalone="no" ?>
<!DOCTYPE svg PUBLIC "-//W3C//DTD SVG 1.1//EN" "http://www.w3.org/Graphics/SVG/1.1/DTD/svg11.dtd">
<svg xmlns="http://www.w3.org/2000/svg" xmlns:xlink="http://www.w3.org/1999/xlink" version="1.1" width="1080" height="150" viewBox="0 -4.88 1080 150" xml:space="preserve">
<desc>Created with Fabric.js 5.2.4</desc>
<defs>
</defs>
<g transform="matrix(1 0 0 1 540 75)" id="db65ad9c-fb92-4775-ba34-c1cdbc61aaf7"  >
<rect style="stroke: none; stroke-width: 1; stroke-dasharray: none; stroke-linecap: butt; stroke-dashoffset: 0; stroke-linejoin: miter; stroke-miterlimit: 4; fill: rgb(255,255,255); fill-rule: nonzero; opacity: 1; visibility: hidden;" vector-effect="non-scaling-stroke"  x="-540" y="-75" rx="0" ry="0" width="1080" height="150" />
</g>
<g transform="matrix(Infinity NaN NaN Infinity 0 0)" id="eb5b30f3-f1da-41b6-8ca2-9e3caf94a069"  >
</g>
<g transform="matrix(0.14 0 0 0.14 540 71)"  >
<g style="" vector-effect="non-scaling-stroke"   >
		<g transform="matrix(1 0 0 1 -581.58 0)"  >
<path style="stroke: none; stroke-width: 1; stroke-dasharray: none; stroke-linecap: round; stroke-dashoffset: 0; stroke-linejoin: round; stroke-miterlimit: 10; fill: rgb(255,255,255); fill-rule: nonzero; opacity: 1;" vector-effect="non-scaling-stroke"  transform=" translate(-537.6, -914)" d="M 537.599 895.995 C 532.63 895.995 528.388 897.753 524.872 901.268 C 521.357 904.784 519.599 909.026 519.599 913.995 C 519.599 918.964 521.357 923.206 524.872 926.722 C 528.388 930.237 532.63 931.995 537.599 931.995 C 542.568 931.995 546.81 930.237 550.326 926.722 C 553.841 923.206 555.599 918.964 555.599 913.995 C 555.599 909.026 553.841 904.784 550.326 901.268 C 546.81 897.753 542.568 895.995 537.599 895.995 Z M 573.599 949.995 L 555.599 949.995 L 555.599 945.143 C 554.24 945.94 552.833 946.643 551.38 947.253 C 546.974 949.081 542.38 949.995 537.599 949.995 C 532.818 949.995 528.224 949.081 523.818 947.253 C 519.411 945.425 515.521 942.823 512.146 939.448 C 508.771 936.073 506.169 932.183 504.341 927.776 C 502.513 923.37 501.599 918.776 501.599 913.995 C 501.599 909.214 502.513 904.62 504.341 900.214 C 506.169 895.807 508.771 891.917 512.146 888.542 C 515.521 885.167 519.411 882.565 523.818 880.737 C 528.224 878.909 532.818 877.995 537.599 877.995 C 542.38 877.995 546.974 878.909 551.38 880.737 C 552.833 881.347 554.24 882.05 555.599 882.847 L 555.599 877.995 L 573.599 877.995 L 573.599 949.995 Z" stroke-linecap="round" />
</g>
		<g transform="matrix(1 0 0 1 -495.17 -9)"  >
<path style="stroke: none; stroke-width: 1; stroke-dasharray: none; stroke-linecap: round; stroke-dashoffset: 0; stroke-linejoin: round; stroke-miterlimit: 10; fill: rgb(255,255,255); fill-rule: nonzero; opacity: 1;" vector-effect="non-scaling-stroke"  transform=" translate(-624.01, -905)" d="M 606.013 922.433 L 606.013 949.995 L 588.013 949.995 L 588.013 859.995 L 606.013 859.995 L 606.013 905.558 L 635.263 877.995 L 660.013 877.995 L 624.013 913.995 L 660.013 949.995 L 635.263 949.995 L 606.013 922.433 Z" stroke-linecap="round" />
</g>
		<g transform="matrix(1 0 0 1 -426.89 0)"  >
<path style="stroke: none; stroke-width: 1; stroke-dasharray: none; stroke-linecap: round; stroke-dashoffset: 0; stroke-linejoin: round; stroke-miterlimit: 10; fill: rgb(255,255,255); fill-rule: nonzero; opacity: 1;" vector-effect="non-scaling-stroke"  transform=" translate(-692.29, -914)" d="M 699.669 878.136 C 704.451 878.136 709.044 879.05 713.451 880.878 C 716.122 882.003 718.607 883.386 720.904 885.026 L 711.411 900.495 C 708.083 897.589 704.169 896.136 699.669 896.136 L 699.669 895.995 C 694.701 895.995 690.458 897.753 686.943 901.268 C 683.427 904.784 681.669 909.026 681.669 913.995 L 681.669 949.995 L 663.669 949.995 L 663.669 877.995 L 681.669 877.995 L 681.669 882.847 C 683.029 882.05 684.435 881.347 685.888 880.737 C 690.294 878.909 694.888 877.995 699.669 877.995 L 699.669 878.136 Z" stroke-linecap="round" />
</g>
		<g transform="matrix(1 0 0 1 -366.64 0)"  >
<path style="stroke: none; stroke-width: 1; stroke-dasharray: none; stroke-linecap: round; stroke-dashoffset: 0; stroke-linejoin: round; stroke-miterlimit: 10; fill: rgb(255,255,255); fill-rule: nonzero; opacity: 1;" vector-effect="non-scaling-stroke"  transform=" translate(-752.54, -914)" d="M 752.544 949.995 C 747.763 949.995 743.169 949.081 738.763 947.253 C 734.357 945.425 730.466 942.823 727.091 939.448 C 723.716 936.073 721.115 932.183 719.286 927.776 C 717.458 923.37 716.544 918.776 716.544 913.995 C 716.544 909.214 717.458 904.62 719.286 900.214 C 721.115 895.807 723.716 891.917 727.091 888.542 C 730.466 885.167 734.357 882.565 738.763 880.737 C 743.169 878.909 747.763 877.995 752.544 877.995 C 757.326 877.995 761.919 878.909 766.326 880.737 C 770.732 882.565 774.622 885.167 777.997 888.542 C 781.372 891.917 783.974 895.807 785.802 900.214 C 787.63 904.62 788.544 909.214 788.544 913.995 C 788.544 918.776 787.63 923.37 785.802 927.776 C 783.974 932.183 781.372 936.073 777.997 939.448 C 774.622 942.823 770.732 945.425 766.326 947.253 C 761.919 949.081 757.326 949.995 752.544 949.995 Z M 752.544 931.995 C 757.513 931.995 761.755 930.237 765.271 926.722 C 768.786 923.206 770.544 918.964 770.544 913.995 C 770.544 909.026 768.786 904.784 765.271 901.268 C 761.755 897.753 757.513 895.995 752.544 895.995 C 747.576 895.995 743.333 897.753 739.818 901.268 C 736.302 904.784 734.544 909.026 734.544 913.995 C 734.544 918.964 736.302 923.206 739.818 926.722 C 743.333 930.237 747.576 931.995 752.544 931.995 Z" stroke-linecap="round" />
</g>
		<g transform="matrix(1 0 0 1 -286.9 0)"  >
<path style="stroke: none; stroke-width: 1; stroke-dasharray: none; stroke-linecap: round; stroke-dashoffset: 0; stroke-linejoin: round; stroke-miterlimit: 10; fill: rgb(255,255,255); fill-rule: nonzero; opacity: 1;" vector-effect="non-scaling-stroke"  transform=" translate(-832.28, -914)" d="M 814.279 882.847 C 815.638 882.05 817.044 881.347 818.497 880.737 C 822.904 878.909 827.497 877.995 832.279 877.995 C 837.06 877.995 841.654 878.909 846.06 880.737 C 850.466 882.565 854.357 885.167 857.732 888.542 C 861.107 891.917 863.708 895.807 865.536 900.214 C 867.365 904.62 868.279 909.214 868.279 913.995 L 868.279 949.995 L 850.279 949.995 L 850.279 913.995 C 850.279 909.026 848.521 904.784 845.005 901.268 C 841.49 897.753 837.247 895.995 832.279 895.995 C 827.31 895.995 823.068 897.753 819.552 901.268 C 816.036 904.784 814.279 909.026 814.279 913.995 L 814.279 949.995 L 796.279 949.995 L 796.279 877.995 L 814.279 877.995 L 814.279 882.847 Z" stroke-linecap="round" />
</g>
		<g transform="matrix(1 0 0 1 -208.01 0)"  >
<path style="stroke: none; stroke-width: 1; stroke-dasharray: none; stroke-linecap: round; stroke-dashoffset: 0; stroke-linejoin: round; stroke-miterlimit: 10; fill: rgb(255,255,255); fill-rule: nonzero; opacity: 1;" vector-effect="non-scaling-stroke"  transform=" translate(-911.17, -914)" d="M 911.169 895.995 C 906.201 895.995 901.958 897.753 898.443 901.268 C 894.927 904.784 893.169 909.026 893.169 913.995 C 893.169 918.964 894.927 923.206 898.443 926.722 C 901.958 930.237 906.201 931.995 911.169 931.995 C 916.138 931.995 920.38 930.237 923.896 926.722 C 927.411 923.206 929.169 918.964 929.169 913.995 C 929.169 909.026 927.411 904.784 923.896 901.268 C 920.38 897.753 916.138 895.995 911.169 895.995 Z M 947.169 949.995 L 929.169 949.995 L 929.169 945.143 C 927.81 945.94 926.404 946.643 924.951 947.253 C 920.544 949.081 915.951 949.995 911.169 949.995 C 906.388 949.995 901.794 949.081 897.388 947.253 C 892.982 945.425 889.091 942.823 885.716 939.448 C 882.341 936.073 879.74 932.183 877.911 927.776 C 876.083 923.37 875.169 918.776 875.169 913.995 C 875.169 909.214 876.083 904.62 877.911 900.214 C 879.74 895.807 882.341 891.917 885.716 888.542 C 889.091 885.167 892.982 882.565 897.388 880.737 C 901.794 878.909 906.388 877.995 911.169 877.995 C 915.951 877.995 920.544 878.909 924.951 880.737 C 926.404 881.347 927.81 882.05 929.169 882.847 L 929.169 877.995 L 947.169 877.995 L 947.169 949.995 Z" stroke-linecap="round" />
</g>
		<g transform="matrix(1 0 0 1 -141.35 -9)"  >
<path style="stroke: none; stroke-width: 1; stroke-dasharray: none; stroke-linecap: round; stroke-dashoffset: 0; stroke-linejoin: round; stroke-miterlimit: 10; fill: rgb(255,255,255); fill-rule: nonzero; opacity: 1;" vector-effect="non-scaling-stroke"  transform=" translate(-977.83, -905)" d="M 959.826 913.995 L 959.826 859.995 L 977.826 859.995 L 977.826 913.995 C 977.826 918.964 979.583 923.206 983.099 926.722 C 986.615 930.237 990.857 931.995 995.826 931.995 L 995.826 949.995 C 991.044 949.995 986.451 949.081 982.044 947.253 C 977.638 945.425 973.747 942.823 970.372 939.448 C 966.997 936.073 964.396 932.183 962.568 927.776 C 960.74 923.37 959.826 918.776 959.826 913.995 Z" stroke-linecap="round" />
</g>
		<g transform="matrix(1 0 0 1 -88.13 0)"  >
<path style="stroke: none; stroke-width: 1; stroke-dasharray: none; stroke-linecap: round; stroke-dashoffset: 0; stroke-linejoin: round; stroke-miterlimit: 10; fill: rgb(255,255,255); fill-rule: nonzero; opacity: 1;" vector-effect="non-scaling-stroke"  transform=" translate(-1031.05, -914)" d="M 1049.05 945.143 C 1047.69 945.94 1046.29 946.643 1044.83 947.253 C 1040.43 949.081 1035.83 949.995 1031.05 949.995 C 1026.27 949.995 1021.68 949.081 1017.27 947.253 C 1012.86 945.425 1008.97 942.823 1005.6 939.448 C 1002.22 936.073 999.622 932.183 997.794 927.776 C 995.966 923.37 995.052 918.776 995.052 913.995 L 995.052 877.995 L 1013.05 877.995 L 1013.05 913.995 C 1013.05 918.964 1014.81 923.206 1018.33 926.722 C 1021.84 930.237 1026.08 931.995 1031.05 931.995 C 1036.02 931.995 1040.26 930.237 1043.78 926.722 C 1047.29 923.206 1049.05 918.964 1049.05 913.995 L 1049.05 877.995 L 1067.05 877.995 L 1067.05 949.995 L 1049.05 949.995 L 1049.05 945.143 Z" stroke-linecap="round" />
</g>
		<g transform="matrix(1 0 0 1 25.29 0)"  >
<path style="stroke: none; stroke-width: 1; stroke-dasharray: none; stroke-linecap: round; stroke-dashoffset: 0; stroke-linejoin: round; stroke-miterlimit: 10; fill: rgb(255,255,255); fill-rule: nonzero; opacity: 1;" vector-effect="non-scaling-stroke"  transform=" translate(-1144.47, -914)" d="M 1099.47 882.847 C 1100.83 882.05 1102.23 881.347 1103.68 880.737 C 1108.09 878.909 1112.68 877.995 1117.47 877.995 C 1122.25 877.995 1126.84 878.909 1131.25 880.737 C 1135.65 882.565 1139.54 885.167 1142.92 888.542 C 1143.43 889.058 1143.95 889.597 1144.47 890.159 C 1144.98 889.597 1145.5 889.058 1146.01 888.542 C 1149.39 885.167 1153.28 882.565 1157.68 880.737 C 1162.09 878.909 1166.68 877.995 1171.47 877.995 C 1176.25 877.995 1180.84 878.909 1185.25 880.737 C 1189.65 882.565 1193.54 885.167 1196.92 888.542 C 1200.29 891.917 1202.9 895.807 1204.72 900.214 C 1206.55 904.62 1207.47 909.214 1207.47 913.995 L 1207.47 949.995 L 1189.47 949.995 L 1189.47 913.995 C 1189.47 909.026 1187.71 904.784 1184.19 901.268 C 1180.68 897.753 1176.43 895.995 1171.47 895.995 C 1166.5 895.995 1162.26 897.753 1158.74 901.268 C 1155.22 904.784 1153.47 909.026 1153.47 913.995 L 1153.47 949.995 L 1135.47 949.995 L 1135.47 913.995 C 1135.47 909.026 1133.71 904.784 1130.19 901.268 C 1126.68 897.753 1122.43 895.995 1117.47 895.995 C 1112.5 895.995 1108.26 897.753 1104.74 901.268 C 1101.22 904.784 1099.47 909.026 1099.47 913.995 L 1099.47 949.995 L 1081.47 949.995 L 1081.47 877.995 L 1099.47 877.995 L 1099.47 882.847 Z" stroke-linecap="round" />
</g>
		<g transform="matrix(1 0 0 1 136.38 0)"  >
<path style="stroke: none; stroke-width: 1; stroke-dasharray: none; stroke-linecap: round; stroke-dashoffset: 0; stroke-linejoin: round; stroke-miterlimit: 10; fill: rgb(255,255,255); fill-rule: nonzero; opacity: 1;" vector-effect="non-scaling-stroke"  transform=" translate(-1255.56, -914)" d="M 1237.56 882.847 C 1238.92 882.05 1240.33 881.347 1241.78 880.737 C 1246.18 878.909 1250.78 877.995 1255.56 877.995 C 1260.34 877.995 1264.93 878.909 1269.34 880.737 C 1273.75 882.565 1277.64 885.167 1281.01 888.542 C 1284.39 891.917 1286.99 895.807 1288.82 900.214 C 1290.65 904.62 1291.56 909.214 1291.56 913.995 L 1291.56 949.995 L 1273.56 949.995 L 1273.56 913.995 C 1273.56 909.026 1271.8 904.784 1268.29 901.268 C 1264.77 897.753 1260.53 895.995 1255.56 895.995 C 1250.59 895.995 1246.35 897.753 1242.83 901.268 C 1239.32 904.784 1237.56 909.026 1237.56 913.995 L 1237.56 949.995 L 1219.56 949.995 L 1219.56 877.995 L 1237.56 877.995 L 1237.56 882.847 Z" stroke-linecap="round" />
</g>
		<g transform="matrix(1 0 0 1 193.61 -13.5)"  >
<path style="stroke: none; stroke-width: 1; stroke-dasharray: none; stroke-linecap: round; stroke-dashoffset: 0; stroke-linejoin: round; stroke-miterlimit: 10; fill: rgb(255,255,255); fill-rule: nonzero; opacity: 1;" vector-effect="non-scaling-stroke"  transform=" translate(-1312.79, -900.5)" d="M 1321.79 949.995 L 1303.79 949.995 L 1303.79 877.995 L 1321.79 877.995 L 1321.79 949.995 Z M 1312.79 873.495 C 1309.7 873.495 1307.05 872.393 1304.85 870.19 C 1302.65 867.987 1301.54 865.339 1301.54 862.245 C 1301.54 859.151 1302.65 856.503 1304.85 854.3 C 1307.05 852.097 1309.7 850.995 1312.79 850.995 C 1315.89 850.995 1318.54 852.097 1320.74 854.3 C 1322.94 856.503 1324.04 859.151 1324.04 862.245 C 1324.04 865.339 1322.94 867.987 1320.74 870.19 C 1318.54 872.393 1315.89 873.495 1312.79 873.495 Z" stroke-linecap="round" />
</g>
		<g transform="matrix(1 0 0 1 252.86 0)"  >
<path style="stroke: none; stroke-width: 1; stroke-dasharray: none; stroke-linecap: round; stroke-dashoffset: 0; stroke-linejoin: round; stroke-miterlimit: 10; fill: rgb(174,36,6); fill-rule: nonzero; opacity: 1;" vector-effect="non-scaling-stroke"  transform=" translate(-1372.04, -914)" d="M 1354.04 882.847 C 1355.4 882.05 1356.81 881.347 1358.26 880.737 C 1362.67 878.909 1367.26 877.995 1372.04 877.995 C 1376.83 877.995 1381.42 878.909 1385.83 880.737 C 1390.23 882.565 1394.12 885.167 1397.5 888.542 C 1400.87 891.917 1403.47 895.807 1405.3 900.214 C 1407.13 904.62 1408.04 909.214 1408.04 913.995 L 1408.04 949.995 L 1390.04 949.995 L 1390.04 913.995 C 1390.04 909.026 1388.29 904.784 1384.77 901.268 C 1381.26 897.753 1377.01 895.995 1372.04 895.995 C 1367.08 895.995 1362.83 897.753 1359.32 901.268 C 1355.8 904.784 1354.04 909.026 1354.04 913.995 L 1354.04 949.995 L 1336.04 949.995 L 1336.04 877.995 L 1354.04 877.995 L 1354.04 882.847 Z" stroke-linecap="round" />
</g>
		<g transform="matrix(1 0 0 1 332.53 0)"  >
<path style="stroke: none; stroke-width: 1; stroke-dasharray: none; stroke-linecap: round; stroke-dashoffset: 0; stroke-linejoin: round; stroke-miterlimit: 10; fill: rgb(174,36,6); fill-rule: nonzero; opacity: 1;" vector-effect="non-scaling-stroke"  transform=" translate(-1451.71, -914)" d="M 1469.71 945.143 C 1468.35 945.94 1466.94 946.643 1465.49 947.253 C 1461.08 949.081 1456.49 949.995 1451.71 949.995 C 1446.93 949.995 1442.33 949.081 1437.93 947.253 C 1433.52 945.425 1429.63 942.823 1426.26 939.448 C 1422.88 936.073 1420.28 932.183 1418.45 927.776 C 1416.62 923.37 1415.71 918.776 1415.71 913.995 L 1415.71 877.995 L 1433.71 877.995 L 1433.71 913.995 C 1433.71 918.964 1435.47 923.206 1438.98 926.722 C 1442.5 930.237 1446.74 931.995 1451.71 931.995 C 1456.68 931.995 1460.92 930.237 1464.43 926.722 C 1467.95 923.206 1469.71 918.964 1469.71 913.995 L 1469.71 877.995 L 1487.71 877.995 L 1487.71 949.995 L 1469.71 949.995 L 1469.71 945.143 Z" stroke-linecap="round" />
</g>
		<g transform="matrix(1 0 0 1 418.94 13.5)"  >
<path style="stroke: none; stroke-width: 1; stroke-dasharray: none; stroke-linecap: round; stroke-dashoffset: 0; stroke-linejoin: round; stroke-miterlimit: 10; fill: rgb(174,36,6); fill-rule: nonzero; opacity: 1;" vector-effect="non-scaling-stroke"  transform=" translate(-1538.12, -927.5)" d="M 1538.12 931.995 C 1543.09 931.995 1547.33 930.237 1550.85 926.722 C 1554.36 923.206 1556.12 918.964 1556.12 913.995 C 1556.12 909.026 1554.36 904.784 1550.85 901.268 C 1547.33 897.753 1543.09 895.995 1538.12 895.995 C 1533.15 895.995 1528.91 897.753 1525.4 901.268 C 1521.88 904.784 1520.12 909.026 1520.12 913.995 C 1520.12 918.964 1521.88 923.206 1525.4 926.722 C 1528.91 930.237 1533.15 931.995 1538.12 931.995 Z M 1502.12 877.995 L 1520.12 877.995 L 1520.12 882.847 C 1521.48 882.05 1522.89 881.347 1524.34 880.737 C 1528.75 878.909 1533.34 877.995 1538.12 877.995 C 1542.9 877.995 1547.5 878.909 1551.9 880.737 C 1556.31 882.565 1560.2 885.167 1563.58 888.542 C 1566.95 891.917 1569.55 895.807 1571.38 900.214 C 1573.21 904.62 1574.12 909.214 1574.12 913.995 C 1574.12 918.776 1573.21 923.37 1571.38 927.776 C 1569.55 932.183 1566.95 936.073 1563.58 939.448 C 1560.2 942.823 1556.31 945.425 1551.9 947.253 C 1547.5 949.081 1542.9 949.995 1538.12 949.995 C 1533.34 949.995 1528.75 949.081 1524.34 947.253 C 1522.89 946.643 1521.48 945.94 1520.12 945.143 L 1520.12 976.995 L 1502.12 976.995 L 1502.12 877.995 Z" stroke-linecap="round" />
</g>
		<g transform="matrix(1 0 0 1 497.06 0)"  >
<path style="stroke: none; stroke-width: 1; stroke-dasharray: none; stroke-linecap: round; stroke-dashoffset: 0; stroke-linejoin: round; stroke-miterlimit: 10; fill: rgb(174,36,6); fill-rule: nonzero; opacity: 1;" vector-effect="non-scaling-stroke"  transform=" translate(-1616.24, -914)" d="M 1600.56 904.995 L 1631.22 904.925 C 1628.97 900.753 1625.66 898.011 1621.3 896.698 C 1619.57 896.182 1617.83 895.925 1616.1 895.925 C 1613.24 895.925 1610.43 896.675 1607.66 898.175 C 1604.57 899.862 1602.2 902.136 1600.56 904.995 Z M 1600.63 922.995 C 1603.02 927.167 1606.54 929.932 1611.18 931.292 C 1612.91 931.808 1614.65 932.065 1616.38 932.065 C 1619.24 932.065 1622.05 931.315 1624.82 929.815 C 1626.18 929.065 1627.4 928.222 1628.47 927.284 L 1640.64 940.433 C 1638.48 942.448 1636.09 944.182 1633.47 945.636 C 1629.25 947.886 1624.77 949.268 1620.04 949.784 C 1618.72 949.925 1617.43 949.995 1616.17 949.995 C 1612.75 949.995 1609.37 949.503 1606.04 948.518 C 1601.45 947.159 1597.3 944.979 1593.6 941.979 C 1589.9 938.979 1586.91 935.382 1584.63 931.186 C 1582.36 926.991 1580.97 922.526 1580.45 917.792 C 1580.31 916.479 1580.24 915.19 1580.24 913.925 C 1580.24 910.503 1580.73 907.128 1581.72 903.8 C 1583.08 899.206 1585.26 895.058 1588.26 891.354 C 1591.26 887.651 1594.85 884.663 1599.05 882.39 C 1603.24 880.116 1607.71 878.722 1612.44 878.206 C 1613.76 878.065 1615.04 877.995 1616.31 877.995 C 1619.73 877.995 1623.11 878.487 1626.43 879.472 C 1631.03 880.831 1635.18 883.011 1638.88 886.011 C 1642.58 889.011 1645.57 892.608 1647.85 896.804 C 1650.12 900.999 1651.51 905.464 1652.03 910.198 C 1652.17 911.511 1652.24 912.847 1652.24 914.206 C 1652.24 917.112 1651.89 919.995 1651.18 922.854 L 1600.63 922.995 Z" stroke-linecap="round" />
</g>
		<g transform="matrix(1 0 0 1 561.15 -0.95)"  >
<path style="stroke: none; stroke-width: 1; stroke-dasharray: none; stroke-linecap: round; stroke-dashoffset: 0; stroke-linejoin: round; stroke-miterlimit: 10; fill: rgb(174,36,6); fill-rule: nonzero; opacity: 1;" vector-effect="non-scaling-stroke"  transform=" translate(-1680.33, -913.05)" d="M 1663.91 925.737 C 1665.36 927.706 1667.24 929.3 1669.54 930.518 C 1672.11 931.831 1674.9 932.534 1677.9 932.628 L 1678.26 932.628 C 1680.13 932.628 1681.89 932.288 1683.53 931.608 C 1685.17 930.929 1686.01 929.862 1686.06 928.409 C 1686.06 927.143 1685.37 925.936 1683.99 924.788 C 1682.6 923.64 1680.83 922.479 1678.68 921.308 C 1676.52 920.136 1674.27 918.987 1671.93 917.862 C 1668.93 916.55 1666.17 914.921 1663.67 912.975 C 1661.16 911.03 1659.18 908.722 1657.72 906.05 C 1656.36 903.612 1655.68 900.8 1655.68 897.612 L 1655.68 896.698 C 1655.78 892.573 1657.04 888.94 1659.48 885.8 C 1661.92 882.659 1665.11 880.222 1669.04 878.487 C 1672.7 876.893 1676.59 876.097 1680.72 876.097 L 1681.7 876.097 C 1687.18 876.284 1691.87 877.573 1695.76 879.964 C 1697.59 881.042 1699.14 882.284 1700.4 883.69 L 1692.18 898.948 C 1691.05 897.214 1689.46 895.901 1687.4 895.011 C 1685.15 894.073 1683.15 893.581 1681.42 893.534 L 1681.14 893.534 C 1679.31 893.534 1677.76 893.932 1676.5 894.729 C 1675.23 895.526 1674.58 896.557 1674.53 897.823 C 1674.53 899.089 1675.24 900.155 1676.67 901.022 C 1678.1 901.89 1680.11 902.839 1682.68 903.87 C 1684.04 904.433 1685.54 905.089 1687.18 905.839 C 1690.89 907.479 1694.11 909.401 1696.85 911.604 C 1699.6 913.808 1701.72 916.315 1703.22 919.128 C 1704.58 921.753 1705.26 924.682 1705.26 927.917 L 1705.26 928.55 C 1705.11 933.097 1703.73 936.999 1701.11 940.257 C 1698.48 943.515 1695.08 945.987 1690.91 947.675 C 1687.02 949.222 1682.9 949.995 1678.54 949.995 L 1677.41 949.995 C 1671.51 949.807 1666.18 948.472 1661.45 945.987 C 1659.06 944.722 1657.04 943.268 1655.4 941.628 L 1663.91 925.737 Z" stroke-linecap="round" />
</g>
		<g transform="matrix(1 0 0 1 606.33 24.75)"  >
<path style="stroke: none; stroke-width: 1; stroke-dasharray: none; stroke-linecap: round; stroke-dashoffset: 0; stroke-linejoin: round; stroke-miterlimit: 10; fill: rgb(174,36,6); fill-rule: nonzero; opacity: 1;" vector-effect="non-scaling-stroke"  transform=" translate(-1725.51, -938.75)" d="M 1725.51 949.995 C 1722.41 949.995 1719.76 948.893 1717.56 946.69 C 1715.36 944.487 1714.26 941.839 1714.26 938.745 C 1714.26 935.651 1715.36 933.003 1717.56 930.8 C 1719.76 928.597 1722.41 927.495 1725.51 927.495 C 1728.6 927.495 1731.25 928.597 1733.45 930.8 C 1735.65 933.003 1736.76 935.651 1736.76 938.745 C 1736.76 941.839 1735.65 944.487 1733.45 946.69 C 1731.25 948.893 1728.6 949.995 1725.51 949.995 Z" stroke-linecap="round" />
</g>
</g>
</g>
</svg>